<svg width="167" height="164" viewBox="0 0 167 164" fill="none" xmlns="http://www.w3.org/2000/svg">
<g filter="url(#filter0_d)">
<ellipse cx="83.2383" cy="82.1867" rx="13.2439" ry="11.3309" transform="rotate(5.37501 83.2383 82.1867)" fill="#F0A63D"/>
<path d="M86.7598 86.1629C82.0919 87.0325 78.6346 89.4918 77.8404 85.229C77.0463 80.9661 80.1865 76.8055 84.8544 75.9358C89.5223 75.0662 93.9502 77.8169 94.7444 82.0798C95.5385 86.3426 91.4276 85.2933 86.7598 86.1629Z" fill="#1D0908"/>
</g>
<g filter="url(#filter1_d)">
<path d="M83.2051 75.1127V74.9722L83.4161 74.9019C83.7349 74.7989 83.8943 74.5695 83.8943 74.2136V66.6976C83.8943 66.5103 83.8568 66.3698 83.7818 66.2761C83.7068 66.1825 83.5755 66.1076 83.3879 66.0514L83.2051 66.0092V65.8687L85.7791 65.2646L85.9479 65.3911L85.9057 67.3579V74.2136C85.9057 74.5882 86.0605 74.8223 86.3699 74.916L86.5668 74.9722V75.1127H83.2051ZM88.4235 75.1127L85.9198 71.6005L88.522 69.1982C88.6439 69.0858 88.7142 68.9688 88.733 68.847C88.7611 68.7159 88.6814 68.6222 88.4939 68.5661L88.2548 68.4958V68.3553H90.3506V68.4958L89.9286 68.6082C89.7223 68.6738 89.5535 68.7534 89.4222 68.847C89.3003 68.9313 89.1503 69.0531 88.9721 69.2123L87.3967 70.6874L89.9145 74.1855C90.0646 74.3915 90.2052 74.5507 90.3365 74.6631C90.4678 74.7755 90.6366 74.8692 90.8429 74.9441L90.8992 74.9722V75.1127H88.4235Z" fill="white"/>
<path d="M93.0517 67.4141C92.7329 67.4141 92.4609 67.3157 92.2359 67.1191C92.0202 66.913 91.9123 66.6555 91.9123 66.3464C91.9123 66.028 92.0202 65.7704 92.2359 65.5737C92.4609 65.377 92.7329 65.2787 93.0517 65.2787C93.3705 65.2787 93.6378 65.377 93.8534 65.5737C94.0691 65.7704 94.177 66.028 94.177 66.3464C94.177 66.6555 94.0691 66.913 93.8534 67.1191C93.6378 67.3157 93.3705 67.4141 93.0517 67.4141ZM91.3919 75.1127V74.9722L91.5888 74.916C91.7764 74.8598 91.903 74.7755 91.9686 74.6631C92.0436 74.5507 92.0811 74.4009 92.0811 74.2136V69.8164C92.0811 69.6197 92.0436 69.4745 91.9686 69.3809C91.903 69.2778 91.7764 69.2076 91.5888 69.1701L91.3919 69.128V68.9875L93.966 68.1586L94.1066 68.2991L94.0644 70.294V74.2276C94.0644 74.4149 94.0973 74.5648 94.1629 74.6772C94.2379 74.7895 94.3645 74.8738 94.5427 74.93L94.6833 74.9722V75.1127H91.3919Z" fill="white"/>
<path d="M97.9786 75.3234C97.3785 75.3234 96.9096 75.1735 96.572 74.8738C96.2438 74.5741 96.0797 74.0965 96.0797 73.4409V68.6363H95.1092V68.4958L95.4467 68.4396C95.7374 68.3741 95.9859 68.2804 96.1922 68.1586C96.4079 68.0369 96.6189 67.873 96.8252 67.6669L97.9786 66.3885H98.1193L98.0771 68.3553H99.6525V68.6363H98.063V73.6938C98.063 74.0216 98.1333 74.2697 98.274 74.4383C98.424 74.6069 98.6116 74.6912 98.8366 74.6912C99.0336 74.6912 99.207 74.6444 99.3571 74.5507C99.5071 74.4477 99.6572 74.3119 99.8072 74.1433L99.9478 74.2838C99.7603 74.6022 99.5024 74.8551 99.1742 75.0424C98.846 75.2297 98.4475 75.3234 97.9786 75.3234Z" fill="white"/>
<path d="M103.836 75.3234C103.198 75.3234 102.617 75.1876 102.091 74.916C101.576 74.635 101.163 74.2323 100.854 73.7078C100.554 73.174 100.404 72.523 100.404 71.7551C100.404 70.9964 100.568 70.3502 100.896 69.8164C101.233 69.2732 101.679 68.8611 102.232 68.5801C102.795 68.2898 103.409 68.1446 104.075 68.1446C104.619 68.1446 105.078 68.2336 105.453 68.4115C105.828 68.5895 106.114 68.8236 106.311 69.1139C106.508 69.3949 106.607 69.6899 106.607 69.999C106.607 70.2612 106.527 70.4673 106.368 70.6171C106.208 70.7576 106.002 70.8279 105.749 70.8279C105.477 70.8279 105.256 70.7295 105.088 70.5328C104.919 70.3362 104.82 70.0786 104.792 69.7602C104.783 69.5541 104.787 69.3809 104.806 69.2404C104.825 69.0905 104.825 68.9407 104.806 68.7908C104.769 68.6316 104.708 68.5286 104.623 68.4818C104.548 68.4256 104.44 68.3975 104.3 68.3975C103.728 68.3975 103.282 68.6457 102.964 69.142C102.654 69.6384 102.499 70.4298 102.499 71.5162C102.499 72.4622 102.673 73.188 103.02 73.6938C103.376 74.1901 103.92 74.4383 104.651 74.4383C105.092 74.4383 105.449 74.3587 105.72 74.1995C105.992 74.0403 106.255 73.8015 106.508 73.483L106.649 73.5954C106.414 74.148 106.053 74.5741 105.566 74.8738C105.078 75.1735 104.501 75.3234 103.836 75.3234Z" fill="white"/>
<path d="M107.038 75.1127V74.9722L107.207 74.916C107.544 74.8036 107.713 74.5695 107.713 74.2136V66.7116C107.713 66.515 107.68 66.3698 107.615 66.2761C107.549 66.1825 107.422 66.1122 107.235 66.0654L107.024 66.0092V65.8687L109.499 65.2646L109.724 65.3911L109.668 67.3719V69.128C109.996 68.8564 110.348 68.6269 110.723 68.4396C111.108 68.2429 111.53 68.1446 111.989 68.1446C112.599 68.1446 113.082 68.3179 113.438 68.6644C113.804 69.0109 113.986 69.5448 113.986 70.2659V74.2276C113.986 74.4149 114.024 74.5648 114.099 74.6772C114.174 74.7895 114.305 74.8738 114.493 74.93L114.605 74.9722V75.1127H111.314V74.9722L111.483 74.93C111.82 74.8176 111.989 74.5788 111.989 74.2136V69.8023C111.989 69.4277 111.923 69.1701 111.792 69.0297C111.67 68.8892 111.45 68.8189 111.131 68.8189C110.925 68.8189 110.7 68.8611 110.456 68.9454C110.212 69.0203 109.964 69.1561 109.71 69.3528V74.2417C109.71 74.6069 109.879 74.8411 110.217 74.9441L110.329 74.9722V75.1127H107.038Z" fill="white"/>
<path d="M118.686 68.1446C119.295 68.1446 119.816 68.271 120.247 68.5239C120.678 68.7674 121.006 69.1046 121.232 69.5354C121.466 69.9569 121.583 70.4392 121.583 70.9824C121.583 71.0854 121.578 71.1931 121.569 71.3055C121.56 71.4085 121.541 71.5022 121.513 71.5865H117.321C117.331 72.598 117.509 73.3285 117.856 73.7781C118.212 74.2182 118.737 74.4383 119.431 74.4383C119.9 74.4383 120.28 74.3634 120.57 74.2136C120.861 74.0637 121.133 73.8436 121.386 73.5533L121.527 73.6797C121.236 74.1948 120.847 74.5975 120.359 74.8879C119.881 75.1782 119.304 75.3234 118.629 75.3234C117.964 75.3234 117.373 75.1829 116.857 74.9019C116.341 74.6116 115.938 74.1995 115.647 73.6657C115.357 73.1318 115.211 72.495 115.211 71.7551C115.211 70.9871 115.38 70.3362 115.718 69.8023C116.055 69.2591 116.487 68.847 117.012 68.5661C117.546 68.2851 118.104 68.1446 118.686 68.1446ZM118.643 68.4256C118.371 68.4256 118.137 68.5099 117.94 68.6784C117.753 68.8377 117.602 69.128 117.49 69.5494C117.387 69.9615 117.331 70.5469 117.321 71.3055H119.726C119.82 70.2847 119.783 69.5494 119.614 69.0999C119.445 68.6503 119.122 68.4256 118.643 68.4256Z" fill="white"/>
<path d="M122.284 75.1127V74.9722L122.481 74.916C122.809 74.8223 122.973 74.5929 122.973 74.2276V69.8304C122.973 69.6244 122.941 69.4745 122.875 69.3809C122.809 69.2778 122.683 69.2076 122.495 69.1701L122.284 69.1139V68.9735L124.689 68.1586L124.83 68.2991L124.943 69.142C125.271 68.8517 125.641 68.6129 126.054 68.4256C126.466 68.2383 126.874 68.1446 127.278 68.1446C127.896 68.1446 128.37 68.3132 128.698 68.6503C129.036 68.9875 129.205 69.5026 129.205 70.1957V74.2417C129.205 74.6069 129.383 74.8364 129.739 74.93L129.866 74.9722V75.1127H126.546V74.9722L126.729 74.916C127.057 74.813 127.221 74.5835 127.221 74.2276V69.7461C127.221 69.1467 126.921 68.847 126.321 68.847C125.908 68.847 125.458 69.0531 124.971 69.4652V74.2417C124.971 74.6069 125.135 74.8364 125.463 74.93L125.59 74.9722V75.1127H122.284Z" fill="white"/>
<path d="M102.555 84.5205L100.388 78.578C100.285 78.2783 100.079 78.0675 99.7695 77.9458L99.5303 77.8615V77.721H102.977V77.8615L102.766 77.9177C102.4 78.0301 102.278 78.2548 102.4 78.592L103.708 82.5677L104.875 79.4771L104.608 78.6763C104.543 78.4703 104.472 78.3157 104.397 78.2127C104.332 78.1003 104.242 78.0207 104.13 77.9739L103.891 77.8615V77.721H106.802V77.8615L106.606 77.9458C106.465 78.002 106.38 78.0769 106.352 78.1706C106.324 78.2642 106.343 78.4047 106.409 78.592L107.703 82.4975L109.039 78.6201C109.17 78.2642 109.1 78.0394 108.828 77.9458L108.518 77.8615V77.721H110.206V77.8615L109.869 77.9598C109.709 78.0067 109.592 78.0816 109.517 78.1846C109.452 78.2783 109.391 78.4094 109.334 78.578L107.309 84.5205H106.591L105.03 79.9266L103.37 84.5205H102.555Z" fill="white"/>
<path d="M112.384 84.6891C111.84 84.6891 111.381 84.5345 111.006 84.2255C110.64 83.9164 110.457 83.4715 110.457 82.8909C110.457 82.4507 110.682 82.0479 111.132 81.6827C111.582 81.3081 112.29 81.0271 113.256 80.8398C113.406 80.8117 113.575 80.7836 113.762 80.7555C113.95 80.718 114.147 80.6806 114.353 80.6431V79.5333C114.353 78.8964 114.274 78.4515 114.114 78.1987C113.964 77.9364 113.725 77.8053 113.397 77.8053C113.172 77.8053 112.994 77.8802 112.862 78.0301C112.731 78.1706 112.647 78.4187 112.609 78.7746L112.581 78.9292C112.562 79.3319 112.464 79.6269 112.286 79.8142C112.107 80.0015 111.887 80.0952 111.624 80.0952C111.381 80.0952 111.179 80.0203 111.02 79.8704C110.86 79.7206 110.78 79.5192 110.78 79.2663C110.78 78.8823 110.912 78.5592 111.174 78.297C111.446 78.0348 111.803 77.8381 112.243 77.707C112.684 77.5758 113.162 77.5103 113.678 77.5103C114.513 77.5103 115.155 77.7163 115.605 78.1284C116.065 78.5311 116.294 79.1914 116.294 80.1092V83.214C116.294 83.6354 116.491 83.8462 116.885 83.8462H117.195L117.321 83.9585C117.143 84.1833 116.946 84.3566 116.73 84.4783C116.524 84.6001 116.229 84.661 115.844 84.661C115.432 84.661 115.103 84.5673 114.86 84.38C114.625 84.1833 114.47 83.9258 114.395 83.6073C114.114 83.907 113.823 84.1646 113.523 84.38C113.233 84.586 112.853 84.6891 112.384 84.6891ZM113.242 83.8321C113.43 83.8321 113.603 83.79 113.762 83.7057C113.931 83.612 114.128 83.4715 114.353 83.2842V80.9241C114.259 80.9428 114.166 80.9615 114.072 80.9803C113.978 80.999 113.87 81.0177 113.748 81.0365C113.317 81.1488 112.97 81.3408 112.708 81.6124C112.454 81.8747 112.328 82.2306 112.328 82.6801C112.328 83.0641 112.417 83.3545 112.595 83.5511C112.773 83.7385 112.989 83.8321 113.242 83.8321Z" fill="white"/>
<path d="M117.583 84.4783V84.3379L117.794 84.2817C117.982 84.2255 118.108 84.1412 118.174 84.0288C118.249 83.9164 118.286 83.7712 118.286 83.5933V79.1961C118.286 78.9901 118.249 78.8402 118.174 78.7465C118.108 78.6435 117.982 78.5733 117.794 78.5358L117.583 78.4796V78.3391L120.002 77.5243L120.143 77.6648L120.27 78.873V78.9854C120.401 78.7231 120.57 78.4843 120.776 78.2689C120.992 78.0441 121.226 77.8615 121.479 77.721C121.742 77.5805 122 77.5103 122.253 77.5103C122.609 77.5103 122.881 77.6086 123.069 77.8053C123.256 78.002 123.35 78.2502 123.35 78.5499C123.35 78.8683 123.256 79.1165 123.069 79.2944C122.891 79.463 122.675 79.5473 122.422 79.5473C122.028 79.5473 121.681 79.3506 121.381 78.9573L121.353 78.9292C121.259 78.7981 121.151 78.7278 121.029 78.7184C120.907 78.6997 120.795 78.7559 120.692 78.887C120.598 78.9713 120.518 79.0743 120.453 79.1961C120.396 79.3085 120.34 79.4396 120.284 79.5895V83.509C120.284 83.8836 120.448 84.1178 120.776 84.2114L121.226 84.3379V84.4783H117.583Z" fill="white"/>
<path d="M127.103 77.5103C127.712 77.5103 128.233 77.6367 128.664 77.8896C129.095 78.1331 129.424 78.4703 129.649 78.9011C129.883 79.3225 130 79.8049 130 80.3481C130 80.4511 129.996 80.5588 129.986 80.6712C129.977 80.7742 129.958 80.8679 129.93 80.9522H125.738C125.748 81.9637 125.926 82.6942 126.273 83.1437C126.629 83.5839 127.154 83.804 127.848 83.804C128.317 83.804 128.697 83.7291 128.988 83.5792C129.278 83.4294 129.55 83.2093 129.803 82.919L129.944 83.0454C129.653 83.5605 129.264 83.9632 128.777 84.2536C128.298 84.5439 127.722 84.6891 127.046 84.6891C126.381 84.6891 125.79 84.5486 125.274 84.2676C124.758 83.9773 124.355 83.5652 124.064 83.0313C123.774 82.4975 123.628 81.8606 123.628 81.1207C123.628 80.3528 123.797 79.7018 124.135 79.168C124.472 78.6248 124.904 78.2127 125.429 77.9317C125.963 77.6508 126.521 77.5103 127.103 77.5103ZM127.06 77.7912C126.789 77.7912 126.554 77.8755 126.357 78.0441C126.17 78.2033 126.02 78.4937 125.907 78.9151C125.804 79.3272 125.748 79.9126 125.738 80.6712H128.144C128.237 79.6503 128.2 78.9151 128.031 78.4656C127.862 78.016 127.539 77.7912 127.06 77.7912Z" fill="white"/>
<path d="M84.6204 79.4937C84.164 79.5859 83.5461 80.518 83.6538 81.1993C83.7615 81.8805 84.0845 82.7358 84.8768 83.1481C85.6692 83.5604 86.8563 83.8601 87.9999 83.4708C89.1435 83.0815 90.1127 82.1673 90.4769 81.8318C90.841 81.4963 92.3204 81.5501 92.3204 81.5501C92.3743 81.8984 92.7897 81.9112 93.464 81.8984C94.1384 81.8856 97.2461 81.8446 97.8794 81.8446C98.5128 81.8446 98.6487 81.7114 98.6846 81.5629C98.7205 81.4144 98.6846 81.0123 98.7256 80.6768C98.7666 80.3413 98.3487 80.4207 97.5025 80.3798C96.6563 80.3388 93.3153 80.367 92.8179 80.367C92.3204 80.367 92.3333 80.7101 92.3333 80.7101C92.0032 80.7195 91.6733 80.6877 91.3512 80.6154C91.041 80.5078 90.7461 80.4002 89.8307 79.7011C88.9153 79.002 87.9589 78.6409 86.4974 78.331C85.0358 78.0211 84.6204 79.4937 84.6204 79.4937ZM85.3204 79.5859C86.0525 79.5379 86.7877 79.5975 87.5025 79.7626C88.564 80.0187 89.1845 80.7306 89.1717 81.0123C89.1589 81.294 89.0358 81.335 88.6871 81.6039C88.3384 81.8728 87.7179 81.965 86.8256 81.9522C85.9333 81.9394 85.4794 81.6295 85.4666 81.4963C85.4538 81.3632 85.4666 80.9841 85.5204 81.0507C85.6538 81.2812 86.0845 81.4553 86.8384 81.6295C87.0828 81.6978 87.3426 81.6865 87.5801 81.5971C87.8176 81.5078 88.0204 81.3451 88.1589 81.1327C88.3333 80.8919 88.4409 80.5155 87.6871 80.1237C86.9333 79.7318 85.7486 80.1109 85.5461 80.2722C85.3435 80.4335 85.2102 80.0699 85.1974 79.9239C85.1845 79.7779 85.2409 79.6012 85.3204 79.5859ZM85.7384 80.7101C85.8461 80.454 86.9512 80.3874 87.3948 80.5232C87.8384 80.6589 87.9333 80.8177 87.6897 81.0584C87.4461 81.2991 87.0589 81.2479 86.5589 81.1275C86.2491 81.0753 85.9628 80.9297 85.7384 80.7101ZM92.6615 81.3427C92.6076 81.5296 92.4897 81.2249 92.5281 81.166C92.723 80.8919 92.723 81.1455 92.6692 81.335L92.6615 81.3427ZM98.1076 80.7101C98.3076 80.7101 98.364 80.7639 98.3487 80.9124C98.3333 81.061 97.4871 81.0072 97.0846 81.0072C96.682 81.0072 93.4358 81.0866 93.2743 81.0866C93.1128 81.0866 93.0589 81.0866 93.0589 80.938C93.0589 80.6154 93.6256 80.8458 94.4179 80.8587C95.2102 80.8715 97.8922 80.7101 98.1076 80.7101ZM86.6948 78.856C87.4378 78.9251 88.16 79.1391 88.8204 79.486C89.2851 79.7298 89.716 80.0328 90.1025 80.3874C90.3847 80.6385 90.7142 80.8309 91.0717 80.9534C91.2461 80.9534 91.4486 80.8715 91.3794 81.0738C91.3512 81.1583 90.3025 81.2351 90.0615 81.586C89.4624 82.2725 88.6754 82.7692 87.7974 83.015C86.8025 83.2429 85.5768 83.2838 84.9307 82.6257C84.2845 81.9675 84.0845 81.5219 84.123 80.9662C84.1615 80.4105 84.6076 79.7959 84.6897 79.9982C84.7582 80.2023 84.844 80.4001 84.9461 80.5898C85.0153 80.6691 85.1358 80.5898 85.0409 80.8177C84.9796 80.9924 84.9585 81.1788 84.9794 81.3628C85.0003 81.5469 85.0625 81.7238 85.1615 81.8805C85.405 82.2031 86.3871 82.4311 87.2127 82.3773C88.0384 82.3235 89.0076 81.8933 89.3794 81.4093C89.7512 80.9252 89.6102 80.4822 88.9768 80.0648C88.4121 79.6939 87.7822 79.4333 87.1204 79.2965C86.6986 79.2057 86.2696 79.1517 85.8384 79.1351C85.623 79.1351 85.4871 79.1736 85.5025 79.107C85.5179 79.0404 85.8871 78.7408 86.682 78.8483L86.6948 78.856Z" fill="white"/>
</g>
<defs>
<filter id="filter0_d" x="0.00927734" y="0.83667" width="166.458" height="162.7" filterUnits="userSpaceOnUse" color-interpolation-filters="sRGB">
<feFlood flood-opacity="0" result="BackgroundImageFix"/>
<feColorMatrix in="SourceAlpha" type="matrix" values="0 0 0 0 0 0 0 0 0 0 0 0 0 0 0 0 0 0 127 0"/>
<feOffset/>
<feGaussianBlur stdDeviation="35"/>
<feColorMatrix type="matrix" values="0 0 0 0 0.113725 0 0 0 0 0.0352941 0 0 0 0 0.0313726 0 0 0 1 0"/>
<feBlend mode="normal" in2="BackgroundImageFix" result="effect1_dropShadow"/>
<feBlend mode="normal" in="SourceGraphic" in2="effect1_dropShadow" result="shape"/>
</filter>
<filter id="filter1_d" x="79.2051" y="65.2646" width="54.7952" height="27.4244" filterUnits="userSpaceOnUse" color-interpolation-filters="sRGB">
<feFlood flood-opacity="0" result="BackgroundImageFix"/>
<feColorMatrix in="SourceAlpha" type="matrix" values="0 0 0 0 0 0 0 0 0 0 0 0 0 0 0 0 0 0 127 0"/>
<feOffset dy="4"/>
<feGaussianBlur stdDeviation="2"/>
<feColorMatrix type="matrix" values="0 0 0 0 0 0 0 0 0 0 0 0 0 0 0 0 0 0 0.25 0"/>
<feBlend mode="normal" in2="BackgroundImageFix" result="effect1_dropShadow"/>
<feBlend mode="normal" in="SourceGraphic" in2="effect1_dropShadow" result="shape"/>
</filter>
</defs>
</svg>
